<mxfile host="app.diagrams.net" modified="2024-04-22T01:23:29.741Z" agent="Mozilla/5.0 (Windows NT 10.0; Win64; x64) AppleWebKit/537.36 (KHTML, like Gecko) Chrome/123.0.0.0 Safari/537.36" etag="qIEy17-7zgwHf4VJh7n-" version="24.2.5" type="google">
  <diagram name="Página-1" id="0MtzmERuFXvoF56_jFHE">
    <mxGraphModel grid="1" page="1" gridSize="10" guides="1" tooltips="1" connect="1" arrows="1" fold="1" pageScale="1" pageWidth="827" pageHeight="1169" math="0" shadow="0">
      <root>
        <mxCell id="0" />
        <mxCell id="1" parent="0" />
        <mxCell id="qr5wFgFRkwvRI-r5NYVK-1" value="CLIENTE" style="swimlane;childLayout=stackLayout;horizontal=1;startSize=50;horizontalStack=0;rounded=1;fontSize=14;fontStyle=0;strokeWidth=2;resizeParent=0;resizeLast=1;shadow=0;dashed=0;align=center;arcSize=4;whiteSpace=wrap;html=1;" vertex="1" parent="1">
          <mxGeometry x="-1940" y="-4110" width="250" height="140" as="geometry" />
        </mxCell>
        <mxCell id="qr5wFgFRkwvRI-r5NYVK-2" value="ID_CLIENTE : INT NOT NULL PK&lt;div&gt;NOME_FONETICO : VARCHAR(100)&lt;/div&gt;&lt;div&gt;DATA_CADASTRO : DATE&lt;/div&gt;&lt;div&gt;ID_STATUS : BOOLEANO&amp;nbsp;&lt;/div&gt;&lt;div&gt;&lt;br&gt;&lt;/div&gt;" style="align=left;strokeColor=none;fillColor=none;spacingLeft=4;fontSize=12;verticalAlign=top;resizable=0;rotatable=0;part=1;html=1;" vertex="1" parent="qr5wFgFRkwvRI-r5NYVK-1">
          <mxGeometry y="50" width="250" height="90" as="geometry" />
        </mxCell>
        <mxCell id="qr5wFgFRkwvRI-r5NYVK-6" value="MODELO" style="swimlane;childLayout=stackLayout;horizontal=1;startSize=50;horizontalStack=0;rounded=1;fontSize=14;fontStyle=0;strokeWidth=2;resizeParent=0;resizeLast=1;shadow=0;dashed=0;align=center;arcSize=4;whiteSpace=wrap;html=1;" vertex="1" parent="1">
          <mxGeometry x="-2670" y="-3300" width="260" height="120" as="geometry" />
        </mxCell>
        <mxCell id="qr5wFgFRkwvRI-r5NYVK-7" value="ID_MODELO : INT NOT NULL PK&lt;div&gt;DESCRICAO_MODELO : VARCHAR(100)&lt;/div&gt;&lt;div&gt;COR : VARCHAR (100)&amp;nbsp;&lt;/div&gt;&lt;div&gt;ID_MARCA : INT&amp;nbsp;&lt;/div&gt;" style="align=left;strokeColor=none;fillColor=none;spacingLeft=4;fontSize=12;verticalAlign=top;resizable=0;rotatable=0;part=1;html=1;" vertex="1" parent="qr5wFgFRkwvRI-r5NYVK-6">
          <mxGeometry y="50" width="260" height="70" as="geometry" />
        </mxCell>
        <mxCell id="qr5wFgFRkwvRI-r5NYVK-10" value="MARCA" style="swimlane;childLayout=stackLayout;horizontal=1;startSize=50;horizontalStack=0;rounded=1;fontSize=14;fontStyle=0;strokeWidth=2;resizeParent=0;resizeLast=1;shadow=0;dashed=0;align=center;arcSize=4;whiteSpace=wrap;html=1;" vertex="1" parent="1">
          <mxGeometry x="-3190" y="-3310" width="280" height="140" as="geometry" />
        </mxCell>
        <mxCell id="qr5wFgFRkwvRI-r5NYVK-11" value="ID_MARCA : INT NOT NULL PK&lt;div&gt;DESCRICAO : VARCHAR(100) NOT NULL&lt;/div&gt;&lt;div&gt;PRINCIPAL&amp;nbsp;&lt;/div&gt;" style="align=left;strokeColor=none;fillColor=none;spacingLeft=4;fontSize=12;verticalAlign=top;resizable=0;rotatable=0;part=1;html=1;" vertex="1" parent="qr5wFgFRkwvRI-r5NYVK-10">
          <mxGeometry y="50" width="280" height="90" as="geometry" />
        </mxCell>
        <mxCell id="qr5wFgFRkwvRI-r5NYVK-12" value="MICROONDAS" style="swimlane;childLayout=stackLayout;horizontal=1;startSize=50;horizontalStack=0;rounded=1;fontSize=14;fontStyle=0;strokeWidth=2;resizeParent=0;resizeLast=1;shadow=0;dashed=0;align=center;arcSize=4;whiteSpace=wrap;html=1;" vertex="1" parent="1">
          <mxGeometry x="-2320" y="-3760" width="310" height="220" as="geometry" />
        </mxCell>
        <mxCell id="qr5wFgFRkwvRI-r5NYVK-13" value="ID_MICROONDAS : INT NOT NULL PK&lt;div&gt;TAMANHO : VARCHAR(100) NOT NULL&lt;/div&gt;&lt;div&gt;VOLTAGEM : BOOLEANO(3)&lt;/div&gt;&lt;div&gt;OBSERVACAO : VARCHAR(200) NOT NULL&lt;/div&gt;&lt;div&gt;DIA_RECEBIMENTO : DATE&amp;nbsp; NOT NULL&lt;/div&gt;&lt;div&gt;FRETE : BOOLEANO(2) NOT NULL&lt;/div&gt;&lt;div&gt;ID_MODELO : INT&amp;nbsp; NOT NULL FK&lt;/div&gt;&lt;div&gt;ID_STATUS:BOOLENO&lt;br&gt;&lt;/div&gt;" style="align=left;strokeColor=none;fillColor=none;spacingLeft=4;fontSize=12;verticalAlign=top;resizable=0;rotatable=0;part=1;html=1;" vertex="1" parent="qr5wFgFRkwvRI-r5NYVK-12">
          <mxGeometry y="50" width="310" height="170" as="geometry" />
        </mxCell>
        <mxCell id="qr5wFgFRkwvRI-r5NYVK-14" value="ENDERECO" style="swimlane;childLayout=stackLayout;horizontal=1;startSize=50;horizontalStack=0;rounded=1;fontSize=14;fontStyle=0;strokeWidth=2;resizeParent=0;resizeLast=1;shadow=0;dashed=0;align=center;arcSize=4;whiteSpace=wrap;html=1;" vertex="1" parent="1">
          <mxGeometry x="-1720" y="-5150" width="360" height="250" as="geometry" />
        </mxCell>
        <mxCell id="qr5wFgFRkwvRI-r5NYVK-15" value="ID_ENDERECO : INT NOT NULL PK&lt;div&gt;TIPO_ENDERECO : VARCHAR (100)&lt;br&gt;&lt;div&gt;CEP : VARCHAR(9) NOT NULL&lt;/div&gt;&lt;div&gt;RUA : VARCHAR(100) NOT NULL&amp;nbsp;&lt;/div&gt;&lt;div&gt;BAIRRO : VARCHAR(100) NOT NULL&lt;/div&gt;&lt;div&gt;LOGRADOURO : VARCHAR(100) NOT NULL&lt;/div&gt;&lt;div&gt;CIDADE : VARCHAR(100) NOT NULL DEFAULT (CURITIBA)&lt;/div&gt;&lt;div&gt;NUMERO : INT NOT NULL&lt;/div&gt;&lt;div&gt;COMPLEMENTO : VARCHAR (200)&lt;/div&gt;&lt;div&gt;ID_CLIENTE : INT NOT NULL FK&lt;/div&gt;&lt;div&gt;ID_FORNECEDOR : INT NOT NULL FK&lt;/div&gt;&lt;div&gt;ID_FUNCIONARIO : INT NOT NULL FK&lt;/div&gt;&lt;/div&gt;" style="align=left;strokeColor=none;fillColor=none;spacingLeft=4;fontSize=12;verticalAlign=top;resizable=0;rotatable=0;part=1;html=1;" vertex="1" parent="qr5wFgFRkwvRI-r5NYVK-14">
          <mxGeometry y="50" width="360" height="200" as="geometry" />
        </mxCell>
        <mxCell id="qr5wFgFRkwvRI-r5NYVK-16" value="TELEFONE" style="swimlane;childLayout=stackLayout;horizontal=1;startSize=50;horizontalStack=0;rounded=1;fontSize=14;fontStyle=0;strokeWidth=2;resizeParent=0;resizeLast=1;shadow=0;dashed=0;align=center;arcSize=4;whiteSpace=wrap;html=1;" vertex="1" parent="1">
          <mxGeometry x="-2780" y="-4530" width="430" height="200" as="geometry" />
        </mxCell>
        <mxCell id="qr5wFgFRkwvRI-r5NYVK-17" value="ID_TELEFONE : INT NOT NULL PK&lt;div&gt;TIPO_TELEFONE : BOOLEAN&lt;br&gt;&lt;div&gt;NUM_TEL : VARCHAR(10) NOT NULL&lt;/div&gt;&lt;div&gt;DDD : VARCHAR(3) NOT NULL&lt;/div&gt;&lt;div&gt;COD_AREA : VARCHAR(4) DEFAULT (+55) NOT NULL&lt;/div&gt;&lt;div&gt;ID_PESSOA: INT NOT NULL&amp;nbsp;&lt;/div&gt;&lt;/div&gt;" style="align=left;strokeColor=none;fillColor=none;spacingLeft=4;fontSize=12;verticalAlign=top;resizable=0;rotatable=0;part=1;html=1;" vertex="1" parent="qr5wFgFRkwvRI-r5NYVK-16">
          <mxGeometry y="50" width="430" height="150" as="geometry" />
        </mxCell>
        <mxCell id="qr5wFgFRkwvRI-r5NYVK-23" value="O_S" style="swimlane;childLayout=stackLayout;horizontal=1;startSize=50;horizontalStack=0;rounded=1;fontSize=14;fontStyle=0;strokeWidth=2;resizeParent=0;resizeLast=1;shadow=0;dashed=0;align=center;arcSize=4;whiteSpace=wrap;html=1;" vertex="1" parent="1">
          <mxGeometry x="-1970" y="-3400" width="375" height="260" as="geometry">
            <mxRectangle x="320" y="740" width="80" height="50" as="alternateBounds" />
          </mxGeometry>
        </mxCell>
        <mxCell id="qr5wFgFRkwvRI-r5NYVK-24" value="ID_O_S : INT NOT NULL PK&lt;div&gt;VALOR : FLOAT NOT NULL&lt;/div&gt;&lt;div&gt;FORMA_PAGAMENTO : BOOLLEANO&lt;/div&gt;&lt;div&gt;OBSERVACAO : VARCHAR(100)&amp;nbsp;&lt;/div&gt;&lt;div&gt;PRAZO_ENTREGA : DATE NOT NULL&lt;/div&gt;&lt;div&gt;ID_MICROONDAS : INT NOT NULL FK&lt;/div&gt;&lt;div&gt;ID_CLIENTE : INT NOT NULL FK&lt;/div&gt;&lt;div&gt;ID_STATUS:BOOLENO&lt;/div&gt;" style="align=left;strokeColor=none;fillColor=none;spacingLeft=4;fontSize=12;verticalAlign=top;resizable=0;rotatable=0;part=1;html=1;" vertex="1" parent="qr5wFgFRkwvRI-r5NYVK-23">
          <mxGeometry y="50" width="375" height="210" as="geometry" />
        </mxCell>
        <mxCell id="qr5wFgFRkwvRI-r5NYVK-29" value="FUNCIONARIO" style="swimlane;childLayout=stackLayout;horizontal=1;startSize=50;horizontalStack=0;rounded=1;fontSize=14;fontStyle=0;strokeWidth=2;resizeParent=0;resizeLast=1;shadow=0;dashed=0;align=center;arcSize=4;whiteSpace=wrap;html=1;" vertex="1" parent="1">
          <mxGeometry x="-1350" y="-4150" width="290" height="220" as="geometry" />
        </mxCell>
        <mxCell id="qr5wFgFRkwvRI-r5NYVK-30" value="ID_FUNCIONARIO: INT NOT NULL PK&lt;div&gt;DATA_ADM : DATE&lt;/div&gt;&lt;div&gt;DATA_DEMI : DATE&lt;/div&gt;&lt;div&gt;ID_DEPARTAMENTO : INT&amp;nbsp;&lt;/div&gt;&lt;div&gt;FUNCAO&lt;/div&gt;&lt;div&gt;ID_SENHA&lt;/div&gt;&lt;div&gt;ID_FILIAL&lt;br&gt;&lt;div&gt;ID_STATUS:BOOLENO&lt;br&gt;&lt;/div&gt;&lt;/div&gt;" style="align=left;strokeColor=none;fillColor=none;spacingLeft=4;fontSize=12;verticalAlign=top;resizable=0;rotatable=0;part=1;html=1;" vertex="1" parent="qr5wFgFRkwvRI-r5NYVK-29">
          <mxGeometry y="50" width="290" height="170" as="geometry" />
        </mxCell>
        <mxCell id="qr5wFgFRkwvRI-r5NYVK-31" value="PRODUTO" style="swimlane;childLayout=stackLayout;horizontal=1;startSize=50;horizontalStack=0;rounded=1;fontSize=14;fontStyle=0;strokeWidth=2;resizeParent=0;resizeLast=1;shadow=0;dashed=0;align=center;arcSize=4;whiteSpace=wrap;html=1;" vertex="1" parent="1">
          <mxGeometry x="-1480" y="-3600" width="280" height="260" as="geometry" />
        </mxCell>
        <mxCell id="qr5wFgFRkwvRI-r5NYVK-32" value="ID_PRODUTO : INT NOT NULL PK&lt;div&gt;DESC_PRODUTO: VARCHAR(100) NOT NULL&lt;/div&gt;&lt;div&gt;QUANTIDADE: INT NOT NULL&lt;/div&gt;&lt;div&gt;VALOR_CUSTO : FLOAT&amp;nbsp;&lt;/div&gt;&lt;div&gt;VALOR _VENDA : FLOAT&lt;/div&gt;&lt;div&gt;DATA_CADASTRO : DATE&amp;nbsp;&lt;/div&gt;&lt;div&gt;QUANTIDADE_MINIMA : FLOAT&lt;/div&gt;&lt;div&gt;QUANTIDADE_ESTOQUE : FLOAT&lt;/div&gt;&lt;div&gt;ACESSÓRIO :&amp;nbsp;&lt;/div&gt;&lt;div&gt;FT_BALCAO :&lt;/div&gt;&lt;div&gt;CODIGO : FLOAT&lt;/div&gt;&lt;div&gt;UNIDADE : BLOOLEAN&lt;/div&gt;&lt;div&gt;ID_FILIAL : INT&amp;nbsp;&lt;/div&gt;ID_STATUS : BOOLEAN" style="align=left;strokeColor=none;fillColor=none;spacingLeft=4;fontSize=12;verticalAlign=top;resizable=0;rotatable=0;part=1;html=1;" vertex="1" parent="qr5wFgFRkwvRI-r5NYVK-31">
          <mxGeometry y="50" width="280" height="210" as="geometry" />
        </mxCell>
        <mxCell id="qr5wFgFRkwvRI-r5NYVK-25" value="FORNECEDOR" style="swimlane;childLayout=stackLayout;horizontal=1;startSize=50;horizontalStack=0;rounded=1;fontSize=14;fontStyle=0;strokeWidth=2;resizeParent=0;resizeLast=1;shadow=0;dashed=0;align=center;arcSize=4;whiteSpace=wrap;html=1;" vertex="1" parent="1">
          <mxGeometry x="-2640" y="-4100" width="316" height="120" as="geometry" />
        </mxCell>
        <mxCell id="qr5wFgFRkwvRI-r5NYVK-26" value="ID_FORNECEDOR: INT NOT NULL PK&lt;div&gt;ID_STATUS:BOOLENO&lt;br&gt;&lt;/div&gt;&lt;div&gt;ID_FILIAL : INT NOT NULL&lt;/div&gt;&lt;div&gt;ID_PESSOA : INT NOT NULL&lt;/div&gt;" style="align=left;strokeColor=none;fillColor=none;spacingLeft=4;fontSize=12;verticalAlign=top;resizable=0;rotatable=0;part=1;html=1;" vertex="1" parent="qr5wFgFRkwvRI-r5NYVK-25">
          <mxGeometry y="50" width="316" height="70" as="geometry" />
        </mxCell>
        <mxCell id="85qlAipnliixcwQ811eb-1" value="FILIAL" style="swimlane;childLayout=stackLayout;horizontal=1;startSize=50;horizontalStack=0;rounded=1;fontSize=14;fontStyle=0;strokeWidth=2;resizeParent=0;resizeLast=1;shadow=0;dashed=0;align=center;arcSize=4;whiteSpace=wrap;html=1;" vertex="1" parent="1">
          <mxGeometry x="-1840" y="-4810" width="220" height="120" as="geometry" />
        </mxCell>
        <mxCell id="85qlAipnliixcwQ811eb-2" value="ID_FILIAL: INT NOT NULL PK&amp;nbsp;&lt;div&gt;NOME_FILIAL: VARCHAR(100)&lt;/div&gt;&lt;div&gt;ID_PESSOA : INT NOT NULL&lt;/div&gt;" style="align=left;strokeColor=none;fillColor=none;spacingLeft=4;fontSize=12;verticalAlign=top;resizable=0;rotatable=0;part=1;html=1;" vertex="1" parent="85qlAipnliixcwQ811eb-1">
          <mxGeometry y="50" width="220" height="70" as="geometry" />
        </mxCell>
        <mxCell id="zdUJwcyS1Iv7ffF6Rz7p-3" value="EMAIL" style="swimlane;childLayout=stackLayout;horizontal=1;startSize=50;horizontalStack=0;rounded=1;fontSize=14;fontStyle=0;strokeWidth=2;resizeParent=0;resizeLast=1;shadow=0;dashed=0;align=center;arcSize=4;whiteSpace=wrap;html=1;" vertex="1" parent="1">
          <mxGeometry x="-2350" y="-4880" width="360" height="120" as="geometry" />
        </mxCell>
        <mxCell id="zdUJwcyS1Iv7ffF6Rz7p-4" value="&lt;div&gt;ID_EMAIL : INT NOT NULL PRIMARY KEY&amp;nbsp;&lt;span style=&quot;background-color: initial;&quot;&gt;&amp;nbsp;&lt;/span&gt;&lt;/div&gt;&lt;div&gt;DESC_EMIAL : VARCHAR (200) NOT NULL&lt;/div&gt;" style="align=left;strokeColor=none;fillColor=none;spacingLeft=4;fontSize=12;verticalAlign=top;resizable=0;rotatable=0;part=1;html=1;" vertex="1" parent="zdUJwcyS1Iv7ffF6Rz7p-3">
          <mxGeometry y="50" width="360" height="70" as="geometry" />
        </mxCell>
        <mxCell id="85qlAipnliixcwQ811eb-3" value="FORMA_PAGAMENTO" style="swimlane;childLayout=stackLayout;horizontal=1;startSize=50;horizontalStack=0;rounded=1;fontSize=14;fontStyle=0;strokeWidth=2;resizeParent=0;resizeLast=1;shadow=0;dashed=0;align=center;arcSize=4;whiteSpace=wrap;html=1;" vertex="1" parent="1">
          <mxGeometry x="-2350" y="-2972" width="350" height="120" as="geometry" />
        </mxCell>
        <mxCell id="85qlAipnliixcwQ811eb-4" value="ID_FORMA_PAGAMENTO : INT NOT NULL PRIMARY KEY&lt;div&gt;DESC_FORMA_PAGAMENTO : VARCHAR (100)&lt;/div&gt;" style="align=left;strokeColor=none;fillColor=none;spacingLeft=4;fontSize=12;verticalAlign=top;resizable=0;rotatable=0;part=1;html=1;" vertex="1" parent="85qlAipnliixcwQ811eb-3">
          <mxGeometry y="50" width="350" height="70" as="geometry" />
        </mxCell>
        <mxCell id="zdUJwcyS1Iv7ffF6Rz7p-5" value="OSSERVICO" style="swimlane;childLayout=stackLayout;horizontal=1;startSize=50;horizontalStack=0;rounded=1;fontSize=14;fontStyle=0;strokeWidth=2;resizeParent=0;resizeLast=1;shadow=0;dashed=0;align=center;arcSize=4;whiteSpace=wrap;html=1;" vertex="1" parent="1">
          <mxGeometry x="-1740" y="-2950" width="160" height="140" as="geometry" />
        </mxCell>
        <mxCell id="zdUJwcyS1Iv7ffF6Rz7p-6" value="ID_REGISTRO&lt;div&gt;IDOS&lt;/div&gt;&lt;div&gt;DESCRICÃO&lt;/div&gt;&lt;div&gt;VALORUNIT&lt;/div&gt;&lt;div&gt;QTDE&lt;/div&gt;" style="align=left;strokeColor=none;fillColor=none;spacingLeft=4;fontSize=12;verticalAlign=top;resizable=0;rotatable=0;part=1;html=1;" vertex="1" parent="zdUJwcyS1Iv7ffF6Rz7p-5">
          <mxGeometry y="50" width="160" height="90" as="geometry" />
        </mxCell>
        <mxCell id="zdUJwcyS1Iv7ffF6Rz7p-7" value="Status" style="swimlane;childLayout=stackLayout;horizontal=1;startSize=50;horizontalStack=0;rounded=1;fontSize=14;fontStyle=0;strokeWidth=2;resizeParent=0;resizeLast=1;shadow=0;dashed=0;align=center;arcSize=4;whiteSpace=wrap;html=1;" vertex="1" parent="1">
          <mxGeometry x="-640" y="-4050" width="160" height="120" as="geometry" />
        </mxCell>
        <mxCell id="zdUJwcyS1Iv7ffF6Rz7p-8" value="ID_STATUS&lt;div&gt;DESC_STATUS&lt;/div&gt;&lt;div&gt;TIPO&lt;/div&gt;" style="align=left;strokeColor=none;fillColor=none;spacingLeft=4;fontSize=12;verticalAlign=top;resizable=0;rotatable=0;part=1;html=1;" vertex="1" parent="zdUJwcyS1Iv7ffF6Rz7p-7">
          <mxGeometry y="50" width="160" height="70" as="geometry" />
        </mxCell>
        <mxCell id="zdUJwcyS1Iv7ffF6Rz7p-9" value="PLANO_DE_PAGAMENTO" style="swimlane;childLayout=stackLayout;horizontal=1;startSize=50;horizontalStack=0;rounded=1;fontSize=14;fontStyle=0;strokeWidth=2;resizeParent=0;resizeLast=1;shadow=0;dashed=0;align=center;arcSize=4;whiteSpace=wrap;html=1;" vertex="1" parent="1">
          <mxGeometry x="-2110" y="-2690" width="220" height="120" as="geometry" />
        </mxCell>
        <mxCell id="zdUJwcyS1Iv7ffF6Rz7p-10" value="ID_PLANO_PAGTO: INT NOT NULL PK&lt;div&gt;DESC_PLANOPAGTO:&amp;nbsp;&lt;/div&gt;&lt;div&gt;PARCELAS&lt;/div&gt;&lt;div&gt;JUROS&lt;/div&gt;" style="align=left;strokeColor=none;fillColor=none;spacingLeft=4;fontSize=12;verticalAlign=top;resizable=0;rotatable=0;part=1;html=1;" vertex="1" parent="zdUJwcyS1Iv7ffF6Rz7p-9">
          <mxGeometry y="50" width="220" height="70" as="geometry" />
        </mxCell>
        <mxCell id="85qlAipnliixcwQ811eb-6" value="CATEGORIA" style="swimlane;childLayout=stackLayout;horizontal=1;startSize=50;horizontalStack=0;rounded=1;fontSize=14;fontStyle=0;strokeWidth=2;resizeParent=0;resizeLast=1;shadow=0;dashed=0;align=center;arcSize=4;whiteSpace=wrap;html=1;" vertex="1" parent="1">
          <mxGeometry x="-3100" y="-3750" width="370" height="120" as="geometry" />
        </mxCell>
        <mxCell id="85qlAipnliixcwQ811eb-7" value="ID_CATEGORIA :&amp;nbsp; INT NOT NULL PRIMARY KEY&lt;div&gt;DESC_CATEGORIA : VARCHCAR&lt;/div&gt;&lt;div&gt;&lt;br&gt;&lt;/div&gt;" style="align=left;strokeColor=none;fillColor=none;spacingLeft=4;fontSize=12;verticalAlign=top;resizable=0;rotatable=0;part=1;html=1;" vertex="1" parent="85qlAipnliixcwQ811eb-6">
          <mxGeometry y="50" width="370" height="70" as="geometry" />
        </mxCell>
        <mxCell id="zdUJwcyS1Iv7ffF6Rz7p-12" value="TIPO_DE_ATENDIMENTO" style="swimlane;childLayout=stackLayout;horizontal=1;startSize=50;horizontalStack=0;rounded=1;fontSize=14;fontStyle=0;strokeWidth=2;resizeParent=0;resizeLast=1;shadow=0;dashed=0;align=center;arcSize=4;whiteSpace=wrap;html=1;" vertex="1" parent="1">
          <mxGeometry x="-1290" y="-3200" width="300" height="100" as="geometry" />
        </mxCell>
        <mxCell id="zdUJwcyS1Iv7ffF6Rz7p-13" value="ID_TIPOATENDIMENTO: INT NOT NULL PK&lt;div&gt;DESC_TIPOATENDIMENTO : VARCHAR(100)&lt;/div&gt;" style="align=left;strokeColor=none;fillColor=none;spacingLeft=4;fontSize=12;verticalAlign=top;resizable=0;rotatable=0;part=1;html=1;" vertex="1" parent="zdUJwcyS1Iv7ffF6Rz7p-12">
          <mxGeometry y="50" width="300" height="50" as="geometry" />
        </mxCell>
        <mxCell id="85qlAipnliixcwQ811eb-8" value="PESSOA" style="swimlane;childLayout=stackLayout;horizontal=1;startSize=50;horizontalStack=0;rounded=1;fontSize=14;fontStyle=0;strokeWidth=2;resizeParent=0;resizeLast=1;shadow=0;dashed=0;align=center;arcSize=4;whiteSpace=wrap;html=1;" vertex="1" parent="1">
          <mxGeometry x="-1980" y="-4531" width="290" height="172" as="geometry" />
        </mxCell>
        <mxCell id="85qlAipnliixcwQ811eb-9" value="ID_PESSOA : INT NOT NULL PRIMARY KEY&lt;div&gt;DOCUMENTO_PRINCIPAL : VARCHAR (100)&lt;/div&gt;&lt;div&gt;DOCUMENTO_SECUNDARIO : VARCHAR (100)&lt;/div&gt;&lt;div&gt;NOME_PESSOA : VARCHAR (100)&lt;/div&gt;&lt;div&gt;&lt;br&gt;&lt;/div&gt;&lt;div&gt;&lt;br&gt;&lt;/div&gt;" style="align=left;strokeColor=none;fillColor=none;spacingLeft=4;fontSize=12;verticalAlign=top;resizable=0;rotatable=0;part=1;html=1;" vertex="1" parent="85qlAipnliixcwQ811eb-8">
          <mxGeometry y="50" width="290" height="122" as="geometry" />
        </mxCell>
        <mxCell id="zdUJwcyS1Iv7ffF6Rz7p-15" value="DEPARTAMENTO" style="swimlane;childLayout=stackLayout;horizontal=1;startSize=50;horizontalStack=0;rounded=1;fontSize=14;fontStyle=0;strokeWidth=2;resizeParent=0;resizeLast=1;shadow=0;dashed=0;align=center;arcSize=4;whiteSpace=wrap;html=1;" vertex="1" parent="1">
          <mxGeometry x="-1260" y="-4510" width="370" height="120" as="geometry" />
        </mxCell>
        <mxCell id="zdUJwcyS1Iv7ffF6Rz7p-16" value="ID_DEPARTAMENTO : INT NOT NULL PRIMARY KEY&lt;div&gt;DESC_DEPARTAMENTO: VARCHAR(100)&lt;/div&gt;" style="align=left;strokeColor=none;fillColor=none;spacingLeft=4;fontSize=12;verticalAlign=top;resizable=0;rotatable=0;part=1;html=1;" vertex="1" parent="zdUJwcyS1Iv7ffF6Rz7p-15">
          <mxGeometry y="50" width="370" height="70" as="geometry" />
        </mxCell>
        <mxCell id="zdUJwcyS1Iv7ffF6Rz7p-17" value="SENHA" style="swimlane;childLayout=stackLayout;horizontal=1;startSize=50;horizontalStack=0;rounded=1;fontSize=14;fontStyle=0;strokeWidth=2;resizeParent=0;resizeLast=1;shadow=0;dashed=0;align=center;arcSize=4;whiteSpace=wrap;html=1;" vertex="1" parent="1">
          <mxGeometry x="-1654" y="-3820" width="294" height="120" as="geometry" />
        </mxCell>
        <mxCell id="zdUJwcyS1Iv7ffF6Rz7p-18" value="ID_SENHA : INT NOT NULL PRIMARY KEY&lt;div&gt;ID_STATUS : BOOLEANO&lt;/div&gt;&lt;div&gt;DESC_SENHA: VARCHAR(10)&lt;/div&gt;" style="align=left;strokeColor=none;fillColor=none;spacingLeft=4;fontSize=12;verticalAlign=top;resizable=0;rotatable=0;part=1;html=1;" vertex="1" parent="zdUJwcyS1Iv7ffF6Rz7p-17">
          <mxGeometry y="50" width="294" height="70" as="geometry" />
        </mxCell>
        <mxCell id="85qlAipnliixcwQ811eb-11" value="" style="edgeStyle=entityRelationEdgeStyle;fontSize=12;html=1;endArrow=ERzeroToMany;endFill=1;rounded=0;" edge="1" parent="1" source="85qlAipnliixcwQ811eb-9" target="qr5wFgFRkwvRI-r5NYVK-17">
          <mxGeometry width="100" height="100" relative="1" as="geometry">
            <mxPoint x="-1900" y="-4400" as="sourcePoint" />
            <mxPoint x="-1800" y="-4500" as="targetPoint" />
            <Array as="points">
              <mxPoint x="-2030" y="-4380" />
            </Array>
          </mxGeometry>
        </mxCell>
        <mxCell id="85qlAipnliixcwQ811eb-12" value="" style="edgeStyle=entityRelationEdgeStyle;fontSize=12;html=1;endArrow=ERmany;rounded=0;exitX=1.01;exitY=0.101;exitDx=0;exitDy=0;exitPerimeter=0;" edge="1" parent="1" source="85qlAipnliixcwQ811eb-9" target="qr5wFgFRkwvRI-r5NYVK-15">
          <mxGeometry width="100" height="100" relative="1" as="geometry">
            <mxPoint x="-1670" y="-4410" as="sourcePoint" />
            <mxPoint x="-1800" y="-4500" as="targetPoint" />
          </mxGeometry>
        </mxCell>
        <mxCell id="85qlAipnliixcwQ811eb-13" value="" style="edgeStyle=entityRelationEdgeStyle;fontSize=12;html=1;endArrow=ERmandOne;startArrow=ERmandOne;rounded=0;exitX=1;exitY=0.25;exitDx=0;exitDy=0;entryX=0;entryY=0.75;entryDx=0;entryDy=0;" edge="1" parent="1" source="qr5wFgFRkwvRI-r5NYVK-26" target="85qlAipnliixcwQ811eb-9">
          <mxGeometry width="100" height="100" relative="1" as="geometry">
            <mxPoint x="-2030" y="-4120" as="sourcePoint" />
            <mxPoint x="-1930" y="-4220" as="targetPoint" />
          </mxGeometry>
        </mxCell>
        <mxCell id="85qlAipnliixcwQ811eb-14" value="" style="edgeStyle=entityRelationEdgeStyle;fontSize=12;html=1;endArrow=ERmandOne;startArrow=ERmandOne;rounded=0;entryX=1;entryY=0.75;entryDx=0;entryDy=0;" edge="1" parent="1" source="qr5wFgFRkwvRI-r5NYVK-1" target="85qlAipnliixcwQ811eb-9">
          <mxGeometry width="100" height="100" relative="1" as="geometry">
            <mxPoint x="-2030" y="-4120" as="sourcePoint" />
            <mxPoint x="-1930" y="-4220" as="targetPoint" />
          </mxGeometry>
        </mxCell>
        <mxCell id="85qlAipnliixcwQ811eb-15" value="" style="edgeStyle=entityRelationEdgeStyle;fontSize=12;html=1;endArrow=ERzeroToMany;startArrow=ERzeroToOne;rounded=0;exitX=0;exitY=0.25;exitDx=0;exitDy=0;" edge="1" parent="1" source="85qlAipnliixcwQ811eb-9" target="zdUJwcyS1Iv7ffF6Rz7p-4">
          <mxGeometry width="100" height="100" relative="1" as="geometry">
            <mxPoint x="-2030" y="-4420" as="sourcePoint" />
            <mxPoint x="-1930" y="-4520" as="targetPoint" />
          </mxGeometry>
        </mxCell>
        <mxCell id="85qlAipnliixcwQ811eb-16" value="" style="edgeStyle=entityRelationEdgeStyle;fontSize=12;html=1;endArrow=ERmandOne;startArrow=ERmandOne;rounded=0;" edge="1" parent="1" source="qr5wFgFRkwvRI-r5NYVK-30" target="85qlAipnliixcwQ811eb-9">
          <mxGeometry width="100" height="100" relative="1" as="geometry">
            <mxPoint x="-2030" y="-4280" as="sourcePoint" />
            <mxPoint x="-1930" y="-4380" as="targetPoint" />
          </mxGeometry>
        </mxCell>
        <mxCell id="85qlAipnliixcwQ811eb-17" value="" style="edgeStyle=entityRelationEdgeStyle;fontSize=12;html=1;endArrow=ERoneToMany;rounded=0;exitX=1;exitY=0.25;exitDx=0;exitDy=0;" edge="1" parent="1" source="85qlAipnliixcwQ811eb-9" target="85qlAipnliixcwQ811eb-2">
          <mxGeometry width="100" height="100" relative="1" as="geometry">
            <mxPoint x="-2030" y="-4340" as="sourcePoint" />
            <mxPoint x="-1930" y="-4440" as="targetPoint" />
          </mxGeometry>
        </mxCell>
        <mxCell id="85qlAipnliixcwQ811eb-19" value="" style="edgeStyle=entityRelationEdgeStyle;fontSize=12;html=1;endArrow=ERoneToMany;startArrow=ERzeroToMany;rounded=0;" edge="1" parent="1" source="qr5wFgFRkwvRI-r5NYVK-30" target="zdUJwcyS1Iv7ffF6Rz7p-16">
          <mxGeometry width="100" height="100" relative="1" as="geometry">
            <mxPoint x="-1740" y="-4060" as="sourcePoint" />
            <mxPoint x="-1640" y="-4160" as="targetPoint" />
          </mxGeometry>
        </mxCell>
        <mxCell id="85qlAipnliixcwQ811eb-20" value="" style="edgeStyle=entityRelationEdgeStyle;fontSize=12;html=1;endArrow=ERmandOne;startArrow=ERmandOne;rounded=0;" edge="1" parent="1" source="qr5wFgFRkwvRI-r5NYVK-2" target="zdUJwcyS1Iv7ffF6Rz7p-18">
          <mxGeometry width="100" height="100" relative="1" as="geometry">
            <mxPoint x="-1540" y="-3920" as="sourcePoint" />
            <mxPoint x="-1440" y="-4020" as="targetPoint" />
            <Array as="points">
              <mxPoint x="-1600" y="-3880" />
            </Array>
          </mxGeometry>
        </mxCell>
        <mxCell id="85qlAipnliixcwQ811eb-21" value="" style="edgeStyle=entityRelationEdgeStyle;fontSize=12;html=1;endArrow=ERmandOne;startArrow=ERmandOne;rounded=0;entryX=0;entryY=0.75;entryDx=0;entryDy=0;" edge="1" parent="1" source="zdUJwcyS1Iv7ffF6Rz7p-18" target="qr5wFgFRkwvRI-r5NYVK-30">
          <mxGeometry width="100" height="100" relative="1" as="geometry">
            <mxPoint x="-1540" y="-3920" as="sourcePoint" />
            <mxPoint x="-1440" y="-4020" as="targetPoint" />
          </mxGeometry>
        </mxCell>
        <mxCell id="85qlAipnliixcwQ811eb-22" value="" style="edgeStyle=entityRelationEdgeStyle;fontSize=12;html=1;endArrow=ERoneToMany;startArrow=ERmandOne;rounded=0;exitX=0;exitY=0.25;exitDx=0;exitDy=0;" edge="1" parent="1" source="qr5wFgFRkwvRI-r5NYVK-2" target="qr5wFgFRkwvRI-r5NYVK-13">
          <mxGeometry width="100" height="100" relative="1" as="geometry">
            <mxPoint x="-2050" y="-3830" as="sourcePoint" />
            <mxPoint x="-1970" y="-3720" as="targetPoint" />
          </mxGeometry>
        </mxCell>
        <mxCell id="85qlAipnliixcwQ811eb-23" value="" style="edgeStyle=entityRelationEdgeStyle;fontSize=12;html=1;endArrow=ERoneToMany;startArrow=ERmandOne;rounded=0;" edge="1" parent="1" source="qr5wFgFRkwvRI-r5NYVK-11" target="qr5wFgFRkwvRI-r5NYVK-7">
          <mxGeometry width="100" height="100" relative="1" as="geometry">
            <mxPoint x="-2920" y="-2930" as="sourcePoint" />
            <mxPoint x="-2820" y="-3030" as="targetPoint" />
            <Array as="points">
              <mxPoint x="-2890" y="-2780" />
            </Array>
          </mxGeometry>
        </mxCell>
        <mxCell id="85qlAipnliixcwQ811eb-25" value="" style="edgeStyle=entityRelationEdgeStyle;fontSize=12;html=1;endArrow=ERoneToMany;startArrow=ERmandOne;rounded=0;entryX=0;entryY=0.5;entryDx=0;entryDy=0;exitX=1;exitY=0.75;exitDx=0;exitDy=0;" edge="1" parent="1" source="qr5wFgFRkwvRI-r5NYVK-13" target="qr5wFgFRkwvRI-r5NYVK-24">
          <mxGeometry width="100" height="100" relative="1" as="geometry">
            <mxPoint x="-2020" y="-3570" as="sourcePoint" />
            <mxPoint x="-1970" y="-3710" as="targetPoint" />
          </mxGeometry>
        </mxCell>
        <mxCell id="85qlAipnliixcwQ811eb-26" value="" style="edgeStyle=entityRelationEdgeStyle;fontSize=12;html=1;endArrow=ERoneToMany;startArrow=ERzeroToMany;rounded=0;" edge="1" parent="1" source="qr5wFgFRkwvRI-r5NYVK-24" target="qr5wFgFRkwvRI-r5NYVK-32">
          <mxGeometry width="100" height="100" relative="1" as="geometry">
            <mxPoint x="-2070" y="-3420" as="sourcePoint" />
            <mxPoint x="-1970" y="-3520" as="targetPoint" />
          </mxGeometry>
        </mxCell>
        <mxCell id="85qlAipnliixcwQ811eb-27" value="" style="edgeStyle=entityRelationEdgeStyle;fontSize=12;html=1;endArrow=ERoneToMany;startArrow=ERmandOne;rounded=0;" edge="1" parent="1" target="qr5wFgFRkwvRI-r5NYVK-13">
          <mxGeometry width="100" height="100" relative="1" as="geometry">
            <mxPoint x="-2410" y="-3230" as="sourcePoint" />
            <mxPoint x="-2380" y="-3650" as="targetPoint" />
          </mxGeometry>
        </mxCell>
        <mxCell id="85qlAipnliixcwQ811eb-28" value="" style="edgeStyle=entityRelationEdgeStyle;fontSize=12;html=1;endArrow=ERmandOne;rounded=0;entryX=1.012;entryY=0.902;entryDx=0;entryDy=0;entryPerimeter=0;" edge="1" parent="1" source="zdUJwcyS1Iv7ffF6Rz7p-6" target="qr5wFgFRkwvRI-r5NYVK-24">
          <mxGeometry width="100" height="100" relative="1" as="geometry">
            <mxPoint x="-2070" y="-2850" as="sourcePoint" />
            <mxPoint x="-1560" y="-3170" as="targetPoint" />
            <Array as="points">
              <mxPoint x="-1590" y="-3170" />
            </Array>
          </mxGeometry>
        </mxCell>
        <mxCell id="85qlAipnliixcwQ811eb-29" value="" style="edgeStyle=entityRelationEdgeStyle;fontSize=12;html=1;endArrow=ERoneToMany;startArrow=ERmandOne;rounded=0;exitX=1;exitY=0.25;exitDx=0;exitDy=0;entryX=0;entryY=0.25;entryDx=0;entryDy=0;" edge="1" parent="1" source="85qlAipnliixcwQ811eb-7" target="qr5wFgFRkwvRI-r5NYVK-13">
          <mxGeometry width="100" height="100" relative="1" as="geometry">
            <mxPoint x="-2070" y="-3330" as="sourcePoint" />
            <mxPoint x="-2440" y="-3650" as="targetPoint" />
          </mxGeometry>
        </mxCell>
        <mxCell id="85qlAipnliixcwQ811eb-31" value="" style="edgeStyle=entityRelationEdgeStyle;fontSize=12;html=1;endArrow=ERmandOne;startArrow=ERmandOne;rounded=0;entryX=0;entryY=0;entryDx=0;entryDy=0;exitX=1;exitY=0.75;exitDx=0;exitDy=0;" edge="1" parent="1" source="qr5wFgFRkwvRI-r5NYVK-24" target="zdUJwcyS1Iv7ffF6Rz7p-13">
          <mxGeometry width="100" height="100" relative="1" as="geometry">
            <mxPoint x="-1620" y="-3190" as="sourcePoint" />
            <mxPoint x="-1970" y="-3340" as="targetPoint" />
          </mxGeometry>
        </mxCell>
        <mxCell id="85qlAipnliixcwQ811eb-32" style="edgeStyle=orthogonalEdgeStyle;rounded=0;orthogonalLoop=1;jettySize=auto;html=1;exitX=1;exitY=0.5;exitDx=0;exitDy=0;" edge="1" parent="1" source="zdUJwcyS1Iv7ffF6Rz7p-10" target="zdUJwcyS1Iv7ffF6Rz7p-6">
          <mxGeometry relative="1" as="geometry" />
        </mxCell>
        <mxCell id="85qlAipnliixcwQ811eb-33" style="edgeStyle=orthogonalEdgeStyle;rounded=0;orthogonalLoop=1;jettySize=auto;html=1;exitX=1;exitY=0.75;exitDx=0;exitDy=0;" edge="1" parent="1" source="85qlAipnliixcwQ811eb-4" target="zdUJwcyS1Iv7ffF6Rz7p-6">
          <mxGeometry relative="1" as="geometry" />
        </mxCell>
      </root>
    </mxGraphModel>
  </diagram>
</mxfile>
